<svg xmlns="http://www.w3.org/2000/svg" viewBox="0 0 100 100">
  <!-- Background circle -->
  <circle cx="50" cy="50" r="50" fill="#059669"/>

  <!-- Accent ring -->
  <circle cx="50" cy="50" r="42" fill="none" stroke="#10b981" stroke-width="3"/>

  <!-- Letter G in white -->
  <path d="M 50 30 C 60 30 68 38 68 48 L 63 48 C 63 40.5 57 35 50 35 C 43 35 37 40.5 37 48 C 37 55.5 43 61 50 61 C 54 61 57.5 59 59.5 56 L 50 56 L 50 51 L 65 51 L 65 48 C 65 38 60 30 50 30 Z M 50 66 C 40 66 32 58 32 48 C 32 38 40 30 50 30 C 60 30 68 38 68 48 C 68 58 60 66 50 66 Z" fill="#FFFFFF"/>

  <!-- Accent dot -->
  <circle cx="68" cy="32" r="6" fill="#10b981"/>
</svg>
